<svg width="48" height="48" viewBox="0 0 48 48" fill="none" xmlns="http://www.w3.org/2000/svg">
<g clip-path="url(#clip0_20_43)">
<rect width="48" height="48" fill="white"/>
<rect x="1.5" y="1.5" width="45" height="45" rx="1.5" stroke="#152C5B" stroke-width="3"/>
<path d="M20.1719 21.0938H23.6172V35.0527C23.6172 36.9577 23.0202 38.4707 21.8262 39.5918C20.6413 40.7129 19.0736 41.2734 17.123 41.2734C15.0449 41.2734 13.4408 40.7493 12.3105 39.7012C11.1803 38.653 10.6152 37.1947 10.6152 35.3262H14.0605C14.0605 36.3835 14.3203 37.181 14.8398 37.7188C15.3685 38.2474 16.1296 38.5117 17.123 38.5117C18.0527 38.5117 18.791 38.2064 19.3379 37.5957C19.8939 36.9759 20.1719 36.1237 20.1719 35.0391V21.0938ZM37.9863 35.873C37.9863 34.998 37.6764 34.3236 37.0566 33.8496C36.446 33.3757 35.3385 32.8971 33.7344 32.4141C32.1302 31.931 30.8542 31.3932 29.9062 30.8008C28.0924 29.6615 27.1855 28.1758 27.1855 26.3438C27.1855 24.7396 27.8372 23.418 29.1406 22.3789C30.4531 21.3398 32.153 20.8203 34.2402 20.8203C35.6257 20.8203 36.8607 21.0755 37.9453 21.5859C39.0299 22.0964 39.8822 22.8255 40.502 23.7734C41.1217 24.7122 41.4316 25.7559 41.4316 26.9043H37.9863C37.9863 25.8652 37.6582 25.054 37.002 24.4707C36.3548 23.8783 35.4251 23.582 34.2129 23.582C33.0827 23.582 32.2031 23.8236 31.5742 24.3066C30.9544 24.7897 30.6445 25.4642 30.6445 26.3301C30.6445 27.0592 30.9818 27.6699 31.6562 28.1621C32.3307 28.6452 33.4427 29.1191 34.9922 29.584C36.5417 30.0397 37.7858 30.5638 38.7246 31.1562C39.6634 31.7396 40.3516 32.4141 40.7891 33.1797C41.2266 33.9362 41.4453 34.8249 41.4453 35.8457C41.4453 37.5046 40.8073 38.8262 39.5312 39.8105C38.2643 40.7858 36.5417 41.2734 34.3633 41.2734C32.9232 41.2734 31.597 41.0091 30.3848 40.4805C29.1816 39.9427 28.2428 39.2044 27.5684 38.2656C26.903 37.3268 26.5703 36.2331 26.5703 34.9844H30.0293C30.0293 36.1146 30.403 36.9896 31.1504 37.6094C31.8978 38.2292 32.9688 38.5391 34.3633 38.5391C35.5664 38.5391 36.4688 38.2975 37.0703 37.8145C37.681 37.3223 37.9863 36.6751 37.9863 35.873Z" fill="#FF4B07"/>
</g>
<defs>
<clipPath id="clip0_20_43">
<rect width="48" height="48" fill="white"/>
</clipPath>
</defs>
</svg>
