<svg width="48" height="48" viewBox="0 0 48 48" fill="none" xmlns="http://www.w3.org/2000/svg">
<rect width="48" height="48" fill="white"/>
<path d="M5.79847 3.13893C5.71666 2.25943 6.40872 1.5 7.29202 1.5H40.708C41.5913 1.5 42.2833 2.25943 42.2015 3.13894L38.6915 40.8715C38.6355 41.474 38.2229 41.9838 37.6454 42.1643L24.4474 46.2886C24.1561 46.3797 23.8439 46.3797 23.5526 46.2886L10.3546 42.1643C9.77707 41.9838 9.36452 41.474 9.30848 40.8715L5.79847 3.13893Z" stroke="#152C5B" stroke-width="3"/>
<path d="M13.5 13L34.5 12.5L33.5 22.5441M15.5 28L16 32.0882L24.4388 35L32.5 32.0882L33.5 22.5441M33.5 22.5441H15" stroke="#FF4B07" stroke-width="3" stroke-linecap="square"/>
</svg>
