<svg width="48" height="48" viewBox="0 0 48 48" fill="none" xmlns="http://www.w3.org/2000/svg">
<g clip-path="url(#clip0_20_62)">
<rect width="48" height="48" fill="white"/>
<path d="M24 11.5C30.4186 11.5 36.1555 12.9666 40.2352 15.2614C44.3618 17.5827 46.5 20.5547 46.5 23.5C46.5 26.4453 44.3618 29.4173 40.2352 31.7386C36.1555 34.0334 30.4186 35.5 24 35.5C17.5814 35.5 11.8445 34.0334 7.76483 31.7386C3.63819 29.4173 1.5 26.4453 1.5 23.5C1.5 20.5547 3.63819 17.5827 7.76483 15.2614C11.8445 12.9666 17.5814 11.5 24 11.5Z" stroke="#152C5B" stroke-width="3"/>
<path d="M34.0357 30.3038C30.3408 35.5522 25.8391 39.3991 21.6142 41.414C17.3406 43.4521 13.6796 43.4896 11.2712 41.7942C8.8628 40.0987 7.66344 36.6394 8.14088 31.9289C8.61287 27.272 10.7161 21.7366 14.4109 16.4882C18.1058 11.2397 22.6075 7.39291 26.8324 5.37801C31.106 3.33989 34.767 3.30234 37.1754 4.99782C39.5838 6.6933 40.7832 10.1525 40.3057 14.8631C39.8337 19.52 37.7305 25.0553 34.0357 30.3038Z" stroke="#152C5B" stroke-width="3"/>
<path d="M34.1225 17.8679C37.3589 23.4108 38.9851 29.1046 39.0605 33.7847C39.1367 38.5188 37.6483 41.8639 35.1048 43.349C32.5613 44.8341 28.9166 44.4862 24.8313 42.093C20.7925 39.727 16.6332 35.5123 13.3968 29.9694C10.1604 24.4265 8.5342 18.7327 8.45885 14.0525C8.38264 9.31845 9.87105 5.9734 12.4145 4.48829C14.958 3.00317 18.6027 3.35108 22.688 5.74429C26.7268 8.11024 30.8861 12.325 34.1225 17.8679Z" stroke="#152C5B" stroke-width="3"/>
<circle cx="24" cy="24" r="6" fill="#FF4B07"/>
</g>
<defs>
<clipPath id="clip0_20_62">
<rect width="48" height="48" fill="white"/>
</clipPath>
</defs>
</svg>
