<svg width="48" height="48" viewBox="0 0 48 48" fill="none" xmlns="http://www.w3.org/2000/svg">
<rect width="48" height="48" fill="white"/>
<rect x="1.5" y="1.5" width="45" height="45" rx="1.5" stroke="#152C5B" stroke-width="3"/>
<path d="M14.877 27.3379C14.877 26.7129 14.6556 26.2311 14.2129 25.8926C13.7767 25.554 12.9857 25.2122 11.8398 24.8672C10.694 24.5221 9.78255 24.138 9.10547 23.7148C7.8099 22.901 7.16211 21.8398 7.16211 20.5312C7.16211 19.3854 7.6276 18.4414 8.55859 17.6992C9.49609 16.957 10.7103 16.5859 12.2012 16.5859C13.1908 16.5859 14.0729 16.7682 14.8477 17.1328C15.6224 17.4974 16.2311 18.0182 16.6738 18.6953C17.1165 19.3659 17.3379 20.1113 17.3379 20.9316H14.877C14.877 20.1895 14.6426 19.61 14.1738 19.1934C13.7116 18.7702 13.0475 18.5586 12.1816 18.5586C11.3743 18.5586 10.7461 18.7311 10.2969 19.0762C9.85417 19.4212 9.63281 19.903 9.63281 20.5215C9.63281 21.0423 9.8737 21.4785 10.3555 21.8301C10.8372 22.1751 11.6315 22.5137 12.7383 22.8457C13.8451 23.1712 14.7337 23.5456 15.4043 23.9688C16.0749 24.3854 16.5664 24.8672 16.8789 25.4141C17.1914 25.9544 17.3477 26.5892 17.3477 27.3184C17.3477 28.5033 16.8919 29.4473 15.9805 30.1504C15.0755 30.847 13.8451 31.1953 12.2891 31.1953C11.2604 31.1953 10.3132 31.0065 9.44727 30.6289C8.58789 30.2448 7.91732 29.7174 7.43555 29.0469C6.96029 28.3763 6.72266 27.5951 6.72266 26.7031H9.19336C9.19336 27.5104 9.46029 28.1354 9.99414 28.5781C10.528 29.0208 11.293 29.2422 12.2891 29.2422C13.1484 29.2422 13.793 29.0697 14.2227 28.7246C14.6589 28.373 14.877 27.9108 14.877 27.3379ZM30.8145 24.2617C30.8145 25.6094 30.5996 26.778 30.1699 27.7676C29.7467 28.7507 29.151 29.5319 28.3828 30.1113L30.8242 32.0156L29.2227 33.4609L26.1953 31.0684C25.7982 31.153 25.3717 31.1953 24.916 31.1953C23.7702 31.1953 22.7448 30.9154 21.8398 30.3555C20.9414 29.7891 20.2448 28.985 19.75 27.9434C19.2617 26.9017 19.0143 25.7005 19.0078 24.3398V23.5391C19.0078 22.1523 19.252 20.9284 19.7402 19.8672C20.235 18.806 20.9284 17.9954 21.8203 17.4355C22.7188 16.8691 23.7441 16.5859 24.8965 16.5859C26.0684 16.5859 27.1003 16.8659 27.9922 17.4258C28.8906 17.9792 29.584 18.7799 30.0723 19.8281C30.5605 20.8698 30.8079 22.084 30.8145 23.4707V24.2617ZM28.334 23.5195C28.334 21.918 28.0345 20.7038 27.4355 19.877C26.8366 19.0501 25.9902 18.6367 24.8965 18.6367C23.8353 18.6367 23.002 19.0566 22.3965 19.8965C21.7975 20.7298 21.4915 21.9082 21.4785 23.4316V24.2617C21.4785 25.7982 21.778 26.9993 22.377 27.8652C22.9824 28.7311 23.8288 29.1641 24.916 29.1641C26.0163 29.1641 26.8594 28.7474 27.4453 27.9141C28.0378 27.0807 28.334 25.8633 28.334 24.2617V23.5195ZM35.7949 29.0273H42.25V31H33.3242V16.7812H35.7949V29.0273Z" fill="#FF4B07"/>
</svg>
